<?xml version="1.0" encoding="UTF-8"?>
<svg xmlns="http://www.w3.org/2000/svg" xmlns:xlink="http://www.w3.org/1999/xlink" width="256pt" height="256pt" viewBox="0 0 256 256" version="1.1">
<g id="surface395884">
<path style=" stroke:none;fill-rule:nonzero;fill:rgb(100%,100%,100%);fill-opacity:1;" d="M 128 23.0625 L 24 75.0625 L 24 180.9375 L 128 232.9375 L 232 180.9375 L 232 75.0625 Z M 128 40.9375 L 216 84.9375 L 216 171.0625 L 128 215.0625 L 40 171.0625 L 40 84.9375 Z M 104 80 C 77.59375 80 56 101.59375 56 128 C 56 154.40625 77.59375 176 104 176 C 116 176 127.21875 171.1875 135.21875 164 L 121.59375 154.40625 C 116.78125 157.59375 110.40625 160 104 160 C 86.40625 160 72 145.59375 72 128 C 72 110.40625 86.40625 96 104 96 C 110.40625 96 116.78125 98.40625 121.59375 101.59375 L 135.21875 92 C 127.21875 84.8125 116 80 104 80 Z M 144 96 L 144 104 L 136 104 L 136 120 L 144 120 L 144 136 L 136 136 L 136 152 L 144 152 L 144 160 L 160 160 L 160 152 L 176 152 L 176 160 L 192 160 L 192 152 L 200 152 L 200 136 L 192 136 L 192 120 L 200 120 L 200 104 L 192 104 L 192 96 L 176 96 L 176 104 L 160 104 L 160 96 Z M 160 120 L 176 120 L 176 136 L 160 136 Z M 160 120 "/>
</g>
</svg>
